<svg xmlns="http://www.w3.org/2000/svg" xmlns:xlink="http://www.w3.org/1999/xlink" version="1.1" class="marks" width="373" height="347" viewBox="0 0 373 347"><rect width="373" height="347" fill="white"/><g fill="none" stroke-miterlimit="10" transform="translate(47,10)"><g class="mark-group role-frame root" role="graphics-object" aria-roledescription="group mark container"><g transform="translate(0,0)"><path class="background" aria-hidden="true" d="M0.5,0.5h300v300h-300Z" stroke="#ddd"/><g><g class="mark-group role-axis" aria-hidden="true"><g transform="translate(0.5,300.5)"><path class="background" aria-hidden="true" d="M0,0h0v0h0Z" pointer-events="none"/><g><g class="mark-rule role-axis-grid" pointer-events="none"><line transform="translate(0,-300)" x2="0" y2="300" stroke="#ddd" stroke-width="1" opacity="1"/><line transform="translate(8,-300)" x2="0" y2="300" stroke="#ddd" stroke-width="1" opacity="1"/><line transform="translate(63,-300)" x2="0" y2="300" stroke="#ddd" stroke-width="1" opacity="1"/><line transform="translate(95,-300)" x2="0" y2="300" stroke="#ddd" stroke-width="1" opacity="1"/><line transform="translate(118,-300)" x2="0" y2="300" stroke="#ddd" stroke-width="1" opacity="1"/><line transform="translate(136,-300)" x2="0" y2="300" stroke="#ddd" stroke-width="1" opacity="1"/><line transform="translate(150,-300)" x2="0" y2="300" stroke="#ddd" stroke-width="1" opacity="1"/><line transform="translate(162,-300)" x2="0" y2="300" stroke="#ddd" stroke-width="1" opacity="1"/><line transform="translate(173,-300)" x2="0" y2="300" stroke="#ddd" stroke-width="1" opacity="1"/><line transform="translate(182,-300)" x2="0" y2="300" stroke="#ddd" stroke-width="1" opacity="1"/><line transform="translate(190,-300)" x2="0" y2="300" stroke="#ddd" stroke-width="1" opacity="1"/><line transform="translate(245,-300)" x2="0" y2="300" stroke="#ddd" stroke-width="1" opacity="1"/><line transform="translate(277,-300)" x2="0" y2="300" stroke="#ddd" stroke-width="1" opacity="1"/><line transform="translate(300,-300)" x2="0" y2="300" stroke="#ddd" stroke-width="1" opacity="1"/></g></g><path class="foreground" aria-hidden="true" d="" pointer-events="none" display="none"/></g></g><g class="mark-group role-axis" aria-hidden="true"><g transform="translate(0.5,0.5)"><path class="background" aria-hidden="true" d="M0,0h0v0h0Z" pointer-events="none"/><g><g class="mark-rule role-axis-grid" pointer-events="none"><line transform="translate(0,300)" x2="300" y2="0" stroke="#ddd" stroke-width="1" opacity="1"/><line transform="translate(0,270)" x2="300" y2="0" stroke="#ddd" stroke-width="1" opacity="1"/><line transform="translate(0,240)" x2="300" y2="0" stroke="#ddd" stroke-width="1" opacity="1"/><line transform="translate(0,210)" x2="300" y2="0" stroke="#ddd" stroke-width="1" opacity="1"/><line transform="translate(0,180)" x2="300" y2="0" stroke="#ddd" stroke-width="1" opacity="1"/><line transform="translate(0,150)" x2="300" y2="0" stroke="#ddd" stroke-width="1" opacity="1"/><line transform="translate(0,120)" x2="300" y2="0" stroke="#ddd" stroke-width="1" opacity="1"/><line transform="translate(0,90)" x2="300" y2="0" stroke="#ddd" stroke-width="1" opacity="1"/><line transform="translate(0,60)" x2="300" y2="0" stroke="#ddd" stroke-width="1" opacity="1"/><line transform="translate(0,30)" x2="300" y2="0" stroke="#ddd" stroke-width="1" opacity="1"/><line transform="translate(0,0)" x2="300" y2="0" stroke="#ddd" stroke-width="1" opacity="1"/></g></g><path class="foreground" aria-hidden="true" d="" pointer-events="none" display="none"/></g></g><g class="mark-group role-axis" role="graphics-symbol" aria-roledescription="axis" aria-label="X-axis titled 'Number of Parameters (Millions)' for a log scale with values from 90 to 4,000"><g transform="translate(0.5,300.5)"><path class="background" aria-hidden="true" d="M0,0h0v0h0Z" pointer-events="none"/><g><g class="mark-rule role-axis-tick" pointer-events="none"><line transform="translate(0,0)" x2="0" y2="5" stroke="#888" stroke-width="1" opacity="1"/><line transform="translate(8,0)" x2="0" y2="5" stroke="#888" stroke-width="1" opacity="1"/><line transform="translate(63,0)" x2="0" y2="5" stroke="#888" stroke-width="1" opacity="1"/><line transform="translate(95,0)" x2="0" y2="5" stroke="#888" stroke-width="1" opacity="1"/><line transform="translate(118,0)" x2="0" y2="5" stroke="#888" stroke-width="1" opacity="1"/><line transform="translate(136,0)" x2="0" y2="5" stroke="#888" stroke-width="1" opacity="1"/><line transform="translate(150,0)" x2="0" y2="5" stroke="#888" stroke-width="1" opacity="1"/><line transform="translate(162,0)" x2="0" y2="5" stroke="#888" stroke-width="1" opacity="1"/><line transform="translate(173,0)" x2="0" y2="5" stroke="#888" stroke-width="1" opacity="1"/><line transform="translate(182,0)" x2="0" y2="5" stroke="#888" stroke-width="1" opacity="1"/><line transform="translate(190,0)" x2="0" y2="5" stroke="#888" stroke-width="1" opacity="1"/><line transform="translate(245,0)" x2="0" y2="5" stroke="#888" stroke-width="1" opacity="1"/><line transform="translate(277,0)" x2="0" y2="5" stroke="#888" stroke-width="1" opacity="1"/><line transform="translate(300,0)" x2="0" y2="5" stroke="#888" stroke-width="1" opacity="1"/></g><g class="mark-text role-axis-label" pointer-events="none"><text text-anchor="start" transform="translate(0,15)" font-family="sans-serif" font-size="10px" fill="#000" opacity="1"/><text text-anchor="middle" transform="translate(8.330562892480778,15)" font-family="sans-serif" font-size="10px" fill="#000" opacity="1">100</text><text text-anchor="middle" transform="translate(63.13578233686187,15)" font-family="sans-serif" font-size="10px" fill="#000" opacity="1">200</text><text text-anchor="middle" transform="translate(95.19478055561882,15)" font-family="sans-serif" font-size="10px" fill="#000" opacity="1">300</text><text text-anchor="middle" transform="translate(117.94100178124305,15)" font-family="sans-serif" font-size="10px" fill="#000" opacity="1"/><text text-anchor="middle" transform="translate(135.5843416668565,15)" font-family="sans-serif" font-size="10px" fill="#000" opacity="1"/><text text-anchor="middle" transform="translate(150,15)" font-family="sans-serif" font-size="10px" fill="#000" opacity="1"/><text text-anchor="middle" transform="translate(162.18826545411127,15)" font-family="sans-serif" font-size="10px" fill="#000" opacity="1"/><text text-anchor="middle" transform="translate(172.74622122562423,15)" font-family="sans-serif" font-size="10px" fill="#000" opacity="1"/><text text-anchor="middle" transform="translate(182.05899821875693,15)" font-family="sans-serif" font-size="10px" fill="#000" opacity="1"/><text text-anchor="middle" transform="translate(190.38956111123764,15)" font-family="sans-serif" font-size="10px" fill="#000" opacity="1">1,000</text><text text-anchor="middle" transform="translate(245.19478055561885,15)" font-family="sans-serif" font-size="10px" fill="#000" opacity="1">2,000</text><text text-anchor="middle" transform="translate(277.2537787743757,15)" font-family="sans-serif" font-size="10px" fill="#000" opacity="1">3,000</text><text text-anchor="end" transform="translate(300,15)" font-family="sans-serif" font-size="10px" fill="#000" opacity="1"/></g><g class="mark-rule role-axis-domain" pointer-events="none"><line transform="translate(0,0)" x2="300" y2="0" stroke="#888" stroke-width="1" opacity="1"/></g><g class="mark-text role-axis-title" pointer-events="none"><text text-anchor="middle" transform="translate(150,30)" font-family="sans-serif" font-size="11px" font-weight="bold" fill="#000" opacity="1">Number of Parameters (Millions)</text></g></g><path class="foreground" aria-hidden="true" d="" pointer-events="none" display="none"/></g></g><g class="mark-group role-axis" role="graphics-symbol" aria-roledescription="axis" aria-label="Y-axis titled 'Average Spearman' for a linear scale with values from 0.38 to 0.48"><g transform="translate(0.5,0.5)"><path class="background" aria-hidden="true" d="M0,0h0v0h0Z" pointer-events="none"/><g><g class="mark-rule role-axis-tick" pointer-events="none"><line transform="translate(0,300)" x2="-5" y2="0" stroke="#888" stroke-width="1" opacity="1"/><line transform="translate(0,270)" x2="-5" y2="0" stroke="#888" stroke-width="1" opacity="1"/><line transform="translate(0,240)" x2="-5" y2="0" stroke="#888" stroke-width="1" opacity="1"/><line transform="translate(0,210)" x2="-5" y2="0" stroke="#888" stroke-width="1" opacity="1"/><line transform="translate(0,180)" x2="-5" y2="0" stroke="#888" stroke-width="1" opacity="1"/><line transform="translate(0,150)" x2="-5" y2="0" stroke="#888" stroke-width="1" opacity="1"/><line transform="translate(0,120)" x2="-5" y2="0" stroke="#888" stroke-width="1" opacity="1"/><line transform="translate(0,90)" x2="-5" y2="0" stroke="#888" stroke-width="1" opacity="1"/><line transform="translate(0,60)" x2="-5" y2="0" stroke="#888" stroke-width="1" opacity="1"/><line transform="translate(0,30)" x2="-5" y2="0" stroke="#888" stroke-width="1" opacity="1"/><line transform="translate(0,0)" x2="-5" y2="0" stroke="#888" stroke-width="1" opacity="1"/></g><g class="mark-text role-axis-label" pointer-events="none"><text text-anchor="end" transform="translate(-7,303)" font-family="sans-serif" font-size="10px" fill="#000" opacity="1">0.38</text><text text-anchor="end" transform="translate(-7,273)" font-family="sans-serif" font-size="10px" fill="#000" opacity="1">0.39</text><text text-anchor="end" transform="translate(-7,242.99999999999994)" font-family="sans-serif" font-size="10px" fill="#000" opacity="1">0.40</text><text text-anchor="end" transform="translate(-7,213.00000000000006)" font-family="sans-serif" font-size="10px" fill="#000" opacity="1">0.41</text><text text-anchor="end" transform="translate(-7,183.00000000000003)" font-family="sans-serif" font-size="10px" fill="#000" opacity="1">0.42</text><text text-anchor="end" transform="translate(-7,153)" font-family="sans-serif" font-size="10px" fill="#000" opacity="1">0.43</text><text text-anchor="end" transform="translate(-7,122.99999999999997)" font-family="sans-serif" font-size="10px" fill="#000" opacity="1">0.44</text><text text-anchor="end" transform="translate(-7,92.99999999999994)" font-family="sans-serif" font-size="10px" fill="#000" opacity="1">0.45</text><text text-anchor="end" transform="translate(-7,62.999999999999886)" font-family="sans-serif" font-size="10px" fill="#000" opacity="1">0.46</text><text text-anchor="end" transform="translate(-7,33.00000000000003)" font-family="sans-serif" font-size="10px" fill="#000" opacity="1">0.47</text><text text-anchor="end" transform="translate(-7,3)" font-family="sans-serif" font-size="10px" fill="#000" opacity="1">0.48</text></g><g class="mark-rule role-axis-domain" pointer-events="none"><line transform="translate(0,300)" x2="0" y2="-300" stroke="#888" stroke-width="1" opacity="1"/></g><g class="mark-text role-axis-title" pointer-events="none"><text text-anchor="middle" transform="translate(-30.462890625,150) rotate(-90) translate(0,-2)" font-family="sans-serif" font-size="11px" font-weight="bold" fill="#000" opacity="1">Average Spearman</text></g></g><path class="foreground" aria-hidden="true" d="" pointer-events="none" display="none"/></g></g><g class="mark-group role-scope layer_0_layer_0_pathgroup" role="graphics-object" aria-roledescription="group mark container"><g transform="translate(0,0)"><path class="background" aria-hidden="true" d="M0,0h300v300h-300Z"/><g><g class="mark-line role-mark layer_0_layer_0_marks" role="graphics-object" aria-roledescription="line mark container"><path aria-label="Num Parameters: 150; Average Spearman: 0.387; Model Type: ESM-2" role="graphics-symbol" aria-roledescription="line mark" d="M40.39,279L156.329,198L277.254,222" stroke="#e45756" stroke-width="2"/></g></g><path class="foreground" aria-hidden="true" d="" display="none"/></g><g transform="translate(0,0)"><path class="background" aria-hidden="true" d="M0,0h300v300h-300Z"/><g><g class="mark-line role-mark layer_0_layer_0_marks" role="graphics-object" aria-roledescription="line mark container"><path aria-label="Num Parameters: 300; Average Spearman: 0.406; Model Type: ESMC" role="graphics-symbol" aria-roledescription="line mark" d="M95.195,222L150,225" stroke="#72b7b2" stroke-width="2"/></g></g><path class="foreground" aria-hidden="true" d="" display="none"/></g><g transform="translate(0,0)"><path class="background" aria-hidden="true" d="M0,0h300v300h-300Z"/><g><g class="mark-line role-mark layer_0_layer_0_marks" role="graphics-object" aria-roledescription="line mark container"><path aria-label="Num Parameters: 150; Average Spearman: 0.401; Model Type: E1 (Single Sequence)" role="graphics-symbol" aria-roledescription="line mark" d="M40.39,237L95.195,192L150,180" stroke="#f58518" stroke-width="2"/></g></g><path class="foreground" aria-hidden="true" d="" display="none"/></g><g transform="translate(0,0)"><path class="background" aria-hidden="true" d="M0,0h300v300h-300Z"/><g><g class="mark-line role-mark layer_0_layer_0_marks" role="graphics-object" aria-roledescription="line mark container"><path aria-label="Num Parameters: 101; Average Spearman: 0.45; Model Type: MSA Pairformer" role="graphics-symbol" aria-roledescription="line mark" d="M9.117,90Z" stroke="#54a24b" stroke-width="2"/></g></g><path class="foreground" aria-hidden="true" d="" display="none"/></g><g transform="translate(0,0)"><path class="background" aria-hidden="true" d="M0,0h300v300h-300Z"/><g><g class="mark-line role-mark layer_0_layer_0_marks" role="graphics-object" aria-roledescription="line mark container"><path aria-label="Num Parameters: 201; Average Spearman: 0.47; Model Type: PoET" role="graphics-symbol" aria-roledescription="line mark" d="M63.53,30Z" stroke="#eeca3b" stroke-width="2"/></g></g><path class="foreground" aria-hidden="true" d="" display="none"/></g><g transform="translate(0,0)"><path class="background" aria-hidden="true" d="M0,0h300v300h-300Z"/><g><g class="mark-line role-mark layer_0_layer_0_marks" role="graphics-object" aria-roledescription="line mark container"><path aria-label="Num Parameters: 150; Average Spearman: 0.473; Model Type: E1 (Retrieval Augmented)" role="graphics-symbol" aria-roledescription="line mark" d="M40.39,21L95.195,15L150,9" stroke="#4c78a8" stroke-width="2"/></g></g><path class="foreground" aria-hidden="true" d="" display="none"/></g></g><g class="mark-symbol role-mark layer_0_layer_1_marks" role="graphics-object" aria-roledescription="symbol mark container"><path aria-label="Num Parameters: 150; Average Spearman: 0.387; Model Type: ESM-2" role="graphics-symbol" aria-roledescription="point" transform="translate(40.38956111123767,279)" d="M5,0A5,5,0,1,1,-5,0A5,5,0,1,1,5,0" fill="#e45756" stroke-width="2" opacity="1"/><path aria-label="Num Parameters: 650; Average Spearman: 0.414; Model Type: ESM-2" role="graphics-symbol" aria-roledescription="point" transform="translate(156.3287542415261,198.00000000000006)" d="M5,0A5,5,0,1,1,-5,0A5,5,0,1,1,5,0" fill="#e45756" stroke-width="2" opacity="1"/><path aria-label="Num Parameters: 3000; Average Spearman: 0.406; Model Type: ESM-2" role="graphics-symbol" aria-roledescription="point" transform="translate(277.2537787743757,221.99999999999994)" d="M5,0A5,5,0,1,1,-5,0A5,5,0,1,1,5,0" fill="#e45756" stroke-width="2" opacity="1"/><path aria-label="Num Parameters: 300; Average Spearman: 0.406; Model Type: ESMC" role="graphics-symbol" aria-roledescription="point" transform="translate(95.19478055561882,221.99999999999994)" d="M5,0A5,5,0,1,1,-5,0A5,5,0,1,1,5,0" fill="#72b7b2" stroke-width="2" opacity="1"/><path aria-label="Num Parameters: 600; Average Spearman: 0.405; Model Type: ESMC" role="graphics-symbol" aria-roledescription="point" transform="translate(150,224.99999999999994)" d="M5,0A5,5,0,1,1,-5,0A5,5,0,1,1,5,0" fill="#72b7b2" stroke-width="2" opacity="1"/><path aria-label="Num Parameters: 150; Average Spearman: 0.401; Model Type: E1 (Single Sequence)" role="graphics-symbol" aria-roledescription="point" transform="translate(40.38956111123767,236.99999999999994)" d="M5,0A5,5,0,1,1,-5,0A5,5,0,1,1,5,0" fill="#f58518" stroke-width="2" opacity="1"/><path aria-label="Num Parameters: 300; Average Spearman: 0.416; Model Type: E1 (Single Sequence)" role="graphics-symbol" aria-roledescription="point" transform="translate(95.19478055561882,192.00000000000003)" d="M5,0A5,5,0,1,1,-5,0A5,5,0,1,1,5,0" fill="#f58518" stroke-width="2" opacity="1"/><path aria-label="Num Parameters: 600; Average Spearman: 0.42; Model Type: E1 (Single Sequence)" role="graphics-symbol" aria-roledescription="point" transform="translate(150,180.00000000000003)" d="M5,0A5,5,0,1,1,-5,0A5,5,0,1,1,5,0" fill="#f58518" stroke-width="2" opacity="1"/><path aria-label="Num Parameters: 101; Average Spearman: 0.45; Model Type: MSA Pairformer" role="graphics-symbol" aria-roledescription="point" transform="translate(9.117307874277468,89.99999999999994)" d="M5,0A5,5,0,1,1,-5,0A5,5,0,1,1,5,0" fill="#54a24b" stroke-width="2" opacity="1"/><path aria-label="Num Parameters: 201; Average Spearman: 0.47; Model Type: PoET" role="graphics-symbol" aria-roledescription="point" transform="translate(63.530133370331654,30.00000000000003)" d="M5,0A5,5,0,1,1,-5,0A5,5,0,1,1,5,0" fill="#eeca3b" stroke-width="2" opacity="1"/><path aria-label="Num Parameters: 150; Average Spearman: 0.473; Model Type: E1 (Retrieval Augmented)" role="graphics-symbol" aria-roledescription="point" transform="translate(40.38956111123767,21.000000000000018)" d="M5,0A5,5,0,1,1,-5,0A5,5,0,1,1,5,0" fill="#4c78a8" stroke-width="2" opacity="1"/><path aria-label="Num Parameters: 300; Average Spearman: 0.475; Model Type: E1 (Retrieval Augmented)" role="graphics-symbol" aria-roledescription="point" transform="translate(95.19478055561882,15.000000000000014)" d="M5,0A5,5,0,1,1,-5,0A5,5,0,1,1,5,0" fill="#4c78a8" stroke-width="2" opacity="1"/><path aria-label="Num Parameters: 600; Average Spearman: 0.477; Model Type: E1 (Retrieval Augmented)" role="graphics-symbol" aria-roledescription="point" transform="translate(150,9.000000000000007)" d="M5,0A5,5,0,1,1,-5,0A5,5,0,1,1,5,0" fill="#4c78a8" stroke-width="2" opacity="1"/></g><g class="mark-text role-mark layer_1_marks" role="graphics-object" aria-roledescription="text mark container"><text aria-label="Max of Num Parameters: 3000; Average Spearman for max Num Parameters: 0.406; Model Type: ESM-2" role="graphics-symbol" aria-roledescription="text mark" text-anchor="start" transform="translate(284.2537787743757,225.99999999999994)" font-family="sans-serif" font-size="12px" font-weight="bold" fill="#e45756">ESM-2</text><text aria-label="Max of Num Parameters: 600; Average Spearman for max Num Parameters: 0.405; Model Type: ESMC" role="graphics-symbol" aria-roledescription="text mark" text-anchor="start" transform="translate(157,228.99999999999994)" font-family="sans-serif" font-size="12px" font-weight="bold" fill="#72b7b2">ESMC</text><text aria-label="Max of Num Parameters: 600; Average Spearman for max Num Parameters: 0.42; Model Type: E1 (Single Sequence)" role="graphics-symbol" aria-roledescription="text mark" text-anchor="start" transform="translate(157,184.00000000000003)" font-family="sans-serif" font-size="12px" font-weight="bold" fill="#f58518">E1 (Single Sequence)</text><text aria-label="Max of Num Parameters: 101; Average Spearman for max Num Parameters: 0.45; Model Type: MSA Pairformer" role="graphics-symbol" aria-roledescription="text mark" text-anchor="start" transform="translate(16.11730787427747,93.99999999999994)" font-family="sans-serif" font-size="12px" font-weight="bold" fill="#54a24b">MSA Pairformer</text><text aria-label="Max of Num Parameters: 201; Average Spearman for max Num Parameters: 0.47; Model Type: PoET" role="graphics-symbol" aria-roledescription="text mark" text-anchor="start" transform="translate(70.53013337033165,34.00000000000003)" font-family="sans-serif" font-size="12px" font-weight="bold" fill="#eeca3b">PoET</text><text aria-label="Max of Num Parameters: 600; Average Spearman for max Num Parameters: 0.477; Model Type: E1 (Retrieval Augmented)" role="graphics-symbol" aria-roledescription="text mark" text-anchor="start" transform="translate(157,13.000000000000007)" font-family="sans-serif" font-size="12px" font-weight="bold" fill="#4c78a8">E1 (Retrieval Augmented)</text></g></g><path class="foreground" aria-hidden="true" d="" display="none"/></g></g></g></svg>
